<svg width="256" height="100" viewBox="0 0 256 100" fill="none" xmlns="http://www.w3.org/2000/svg">
<path d="M20.845 60.34H10.1538V10.58H52.3044V60.34H40.5767V70.92H62.4582V0H0V70.92H21.5264L20.845 60.34Z" fill="#333333"/>
<path d="M45.6344 29.08H24.1176V100H86.5758V29.08H64.6943V39.66H76.422V89.42H34.2714V39.66H44.953L45.6344 29.08Z" fill="#0F88CD"/>
<path d="M108.407 38.5813H114.263C114.119 42.0293 113.187 44.6396 111.469 46.4124C109.759 48.1851 107.343 49.0714 104.222 49.0714C100.938 49.0714 98.42 47.9458 96.6677 45.6944C94.9239 43.443 94.0519 40.2344 94.0519 36.0685V30.9763C94.0519 26.8282 94.9536 23.6284 96.757 21.377C98.5689 19.1257 101.083 18 104.298 18C107.463 18 109.866 18.9218 111.507 20.7655C113.149 22.6002 114.081 25.2416 114.302 28.6895H108.419C108.368 26.5623 108.054 25.0909 107.475 24.2754C106.897 23.4689 105.838 23.0656 104.298 23.0656C102.724 23.0656 101.614 23.6373 100.968 24.7807C100.313 25.9241 99.9682 27.8032 99.9342 30.4179V36.135C99.9342 39.1397 100.253 41.2005 100.891 42.3174C101.538 43.443 102.648 44.0059 104.222 44.0059C105.761 44.0059 106.825 43.6159 107.411 42.8359C107.99 42.047 108.322 40.6288 108.407 38.5813ZM131.03 48.6593L126.666 37.6108H123.757V48.6593H117.887V18.4122H127.24C130.183 18.4122 132.455 19.2055 134.054 20.792C135.653 22.3786 136.453 24.63 136.453 27.5461C136.453 31.5702 135.049 34.3844 132.242 35.9887L137.333 48.3668V48.6593H131.03ZM123.757 23.5043V32.5186H127.087C128.253 32.5186 129.129 32.1153 129.716 31.3087C130.303 30.4933 130.596 29.4075 130.596 28.0514C130.596 25.02 129.46 23.5043 127.189 23.5043H123.757ZM155.478 30.644V35.5766H146.342V43.5937H157.149V48.6593H140.485V18.4122H157.111V23.5043H146.342V30.644H155.478ZM175.932 48.6593L174.375 42.4636H166.375L164.831 48.6593H158.629L167.702 18.4122H173.061L182.184 48.6593H175.932ZM170.368 26.6021L167.651 37.3848H173.073L170.368 26.6021ZM201.311 18.4122V23.5043H194.127V48.6593H188.245V23.5043H181.189V18.4122H201.311ZM210.804 18.4122V48.6593H204.935V18.4122H210.804ZM220.31 18.4122L225.172 40.3496L230.059 18.4122H236.605L228.221 48.6593H222.122L213.816 18.4122H220.31ZM254.328 30.644V35.5766H245.192V43.5937H256V48.6593H239.335V18.4122H255.961V23.5043H245.192V30.644H254.328Z" fill="#0F88CD"/>
<path d="M106.687 74.9538C106.687 73.7687 106.396 72.8732 105.815 72.2672C105.233 71.6524 104.173 71.0197 102.634 70.3693C99.8286 69.2643 97.8104 67.9678 96.579 66.4797C95.3561 64.9917 94.7446 63.2318 94.7446 61.2001C94.7446 58.7497 95.5784 56.7804 97.246 55.2924C98.9221 53.8043 101.047 53.0602 103.621 53.0602C105.332 53.0602 106.858 53.4345 108.201 54.183C109.552 54.9404 110.587 56.0052 111.305 57.3775C112.032 58.7497 112.395 60.3135 112.395 62.0689H106.764C106.764 60.7056 106.486 59.6675 105.93 58.9547C105.374 58.2418 104.571 57.8854 103.519 57.8854C102.535 57.8854 101.766 58.1883 101.21 58.7943C100.662 59.4002 100.389 60.2155 100.389 61.2402C100.389 62.0422 100.697 62.7684 101.312 63.4189C101.928 64.0605 103.014 64.7288 104.571 65.4238C107.299 66.4485 109.283 67.7094 110.523 69.2064C111.754 70.7034 112.37 72.6058 112.37 74.9137C112.37 77.4443 111.596 79.427 110.048 80.8616C108.5 82.2873 106.396 83.0002 103.737 83.0002C101.924 83.0002 100.278 82.6125 98.7981 81.8373C97.3101 81.0621 96.1471 79.9572 95.309 78.5225C94.471 77.079 94.0519 75.3771 94.0519 73.4167H99.7217C99.7217 75.0919 100.034 76.3127 100.658 77.079C101.282 77.8364 102.309 78.2151 103.737 78.2151C105.704 78.2151 106.687 77.128 106.687 74.9538ZM135.806 65.6644V70.6499C135.806 74.5617 134.921 77.5958 133.15 79.7522C131.372 81.9175 128.909 83.0002 125.762 83.0002C122.623 83.0002 120.16 81.9309 118.373 79.7923C116.577 77.6448 115.666 74.6464 115.641 70.797V65.8114C115.641 61.8016 116.53 58.674 118.309 56.4285C120.088 54.183 122.559 53.0602 125.723 53.0602C128.836 53.0602 131.29 54.1652 133.086 56.375C134.874 58.5759 135.78 61.6724 135.806 65.6644ZM130.149 70.8237V65.7713C130.149 63.1427 129.79 61.1868 129.071 59.9036C128.353 58.6205 127.237 57.9789 125.723 57.9789C124.227 57.9789 123.119 58.5982 122.401 59.8368C121.683 61.0665 121.311 62.9422 121.285 65.4639V70.6499C121.285 73.1984 121.653 75.0786 122.388 76.2904C123.115 77.4933 124.239 78.0948 125.762 78.0948C127.233 78.0948 128.327 77.5067 129.046 76.3305C129.764 75.1454 130.132 73.3098 130.149 70.8237ZM145.503 53.4612V77.7206H155.419V82.5992H139.859V53.4612H145.503ZM170.774 53.4612H176.418V73.6306C176.392 76.6602 175.593 78.9814 174.019 80.5943C172.445 82.1982 170.184 83.0002 167.233 83.0002C164.24 83.0002 161.953 82.1848 160.37 80.5542C158.788 78.9324 157.997 76.58 157.997 73.4969V53.4612H163.68V73.5103C163.68 75.1677 163.937 76.3483 164.45 77.0523C164.963 77.7651 165.891 78.1216 167.233 78.1216C168.576 78.1216 169.499 77.7696 170.004 77.0656C170.5 76.3617 170.757 75.2122 170.774 73.6172V53.4612ZM198.815 53.4612V58.3666H191.901V82.5992H186.231V58.3666H179.432V53.4612H198.815ZM207.961 53.4612V82.5992H202.304V53.4612H207.961ZM232.384 65.6644V70.6499C232.384 74.5617 231.499 77.5958 229.729 79.7522C227.959 81.9175 225.496 83.0002 222.34 83.0002C219.202 83.0002 216.739 81.9309 214.952 79.7923C213.156 77.6448 212.245 74.6464 212.22 70.797V65.8114C212.22 61.8016 213.109 58.674 214.888 56.4285C216.666 54.183 219.138 53.0602 222.302 53.0602C225.415 53.0602 227.869 54.1652 229.665 56.375C231.452 58.5759 232.359 61.6724 232.384 65.6644ZM226.728 70.8237V65.7713C226.728 63.1427 226.368 61.1868 225.65 59.9036C224.932 58.6205 223.816 57.9789 222.302 57.9789C220.805 57.9789 219.698 58.5982 218.98 59.8368C218.261 61.0665 217.889 62.9422 217.864 65.4639V70.6499C217.864 73.1984 218.231 75.0786 218.967 76.2904C219.694 77.4933 220.818 78.0948 222.34 78.0948C223.82 78.0948 224.915 77.5067 225.624 76.3305C226.343 75.1454 226.71 73.3098 226.728 70.8237ZM256 53.4612V82.5992H250.356L242.095 63.4857V82.5992H236.438V53.4612H242.095L250.369 72.588V53.4612H256Z" fill="#333333"/>
</svg>
