<svg xmlns="http://www.w3.org/2000/svg" fill="none" viewBox="0 0 340.000000 150.000000">
    <g fill="#0F88CD" class="icon-text-wrapper icon-svg-group iconsvg" transform="translate(77.03980255126953,95.0698356628418)">
        <g class="iconsvg-imagesvg" transform="translate(0,0)"><g>
            <rect fill="#0F88CD" fill-opacity="0" stroke-width="2" x="0" y="0" width="54" height="59.86032590621882" class="image-rect"></rect> <svg x="0" y="0" width="54" height="59.86032590621882" filtersec="colorsb1149177841" class="image-svg-svg primary" style="overflow: visible;"><svg xmlns="http://www.w3.org/2000/svg" viewBox="0 0 90.20999908447266 100"><path d="M21.72 60.34H10.58V10.58H54.5v49.76H42.28v10.58h22.8V0H0v70.92h22.43z" fill="#333"></path><path d="M47.55 29.08H25.13V100h65.08V29.08h-22.8v10.58h12.22v49.76H35.71V39.66h11.13z" fill="#0f88cd"></path></svg></svg> <!----></g></g> <g transform="translate(59,3.4856910705566406)"><g data-gra="path-name" fill-rule="" class="tp-name iconsvg-namesvg"><g transform="scale(1)"><g><path d="M12.66-7.58L17.25-7.58Q17.08-3.69 15.06-1.69 13.05 0.31 9.38 0.31L9.38 0.31Q5.52 0.31 3.46-2.23 1.41-4.77 1.41-9.47L1.41-9.47 1.41-13.3Q1.41-17.98 3.53-20.52 5.66-23.06 9.44-23.06L9.44-23.06Q13.16-23.06 15.09-20.98 17.02-18.91 17.28-15.02L17.28-15.02 12.67-15.02Q12.61-17.42 11.93-18.34 11.25-19.25 9.44-19.25L9.44-19.25Q7.59-19.25 6.83-17.96 6.06-16.67 6.02-13.72L6.02-13.72 6.02-9.42Q6.02-6.03 6.77-4.77 7.53-3.5 9.38-3.5L9.38-3.5Q11.19-3.5 11.88-4.38 12.56-5.27 12.66-7.58L12.66-7.58ZM30.39 0L26.97-8.31 24.69-8.31 24.69 0 20.09 0 20.09-22.75 27.42-22.75Q30.88-22.75 32.76-20.96 34.64-19.17 34.64-15.88L34.64-15.88Q34.64-11.34 31.34-9.53L31.34-9.53 35.33-0.22 35.33 0 30.39 0ZM24.69-18.92L24.69-12.14 27.3-12.14Q28.67-12.14 29.36-13.05 30.05-13.97 30.05-15.5L30.05-15.5Q30.05-18.92 27.38-18.92L27.38-18.92 24.69-18.92ZM49.55-13.55L49.55-9.84 42.39-9.84 42.39-3.81 50.86-3.81 50.86 0 37.8 0 37.8-22.75 50.83-22.75 50.83-18.92 42.39-18.92 42.39-13.55 49.55-13.55ZM65.58 0L64.36-4.66 58.09-4.66 56.88 0 52.02 0 59.13-22.75 63.33-22.75 70.48 0 65.58 0ZM61.22-16.59L59.09-8.48 63.34-8.48 61.22-16.59ZM85.47-22.75L85.47-18.92 79.84-18.92 79.84 0 75.23 0 75.23-18.92 69.7-18.92 69.7-22.75 85.47-22.75ZM92.91-22.75L92.91 0 88.31 0 88.31-22.75 92.91-22.75ZM100.36-22.75L104.17-6.25 108-22.75 113.13-22.75 106.56 0 101.78 0 95.27-22.75 100.36-22.75ZM127.02-13.55L127.02-9.84 119.86-9.84 119.86-3.81 128.33-3.81 128.33 0 115.27 0 115.27-22.75 128.3-22.75 128.3-18.92 119.86-18.92 119.86-13.55 127.02-13.55Z" transform="translate(-1.409999966621399, 23.059999465942383)"></path></g> <!----> <!----> <!----> <!----> <!----> <!----> <g data-gra="path-name-1" fill="#333" transform="translate(0,26.369998931884766)"><g transform="scale(1.00531)"><path d="M10.96-5.72L10.96-5.72Q10.96-7.05 10.28-7.73 9.6-8.42 7.8-9.15L7.8-9.15Q4.52-10.39 3.08-12.06 1.65-13.73 1.65-16.01L1.65-16.01Q1.65-18.76 3.6-20.43 5.56-22.1 8.57-22.1L8.57-22.1Q10.57-22.1 12.14-21.26 13.72-20.41 14.56-18.87 15.41-17.33 15.41-15.36L15.41-15.36 11.02-15.36Q11.02-16.89 10.37-17.69 9.72-18.49 8.49-18.49L8.49-18.49Q7.34-18.49 6.69-17.81 6.05-17.13 6.05-15.98L6.05-15.98Q6.05-15.08 6.77-14.35 7.49-13.63 9.31-12.85L9.31-12.85Q12.5-11.7 13.95-10.02 15.39-8.34 15.39-5.75L15.39-5.75Q15.39-2.91 13.58-1.3 11.77 0.3 8.66 0.3L8.66 0.3Q6.54 0.3 4.81-0.57 3.07-1.44 2.09-3.05 1.11-4.67 1.11-6.87L1.11-6.87 5.53-6.87Q5.53-4.99 6.26-4.13 6.99-3.28 8.66-3.28L8.66-3.28Q10.96-3.28 10.96-5.72ZM33.66-12.67L33.66-8.94Q33.66-4.55 31.59-2.13 29.51 0.3 25.83 0.3L25.83 0.3Q22.16 0.3 20.07-2.1 17.97-4.51 17.94-8.83L17.94-8.83 17.94-12.56Q17.94-17.06 20.02-19.58 22.1-22.1 25.8-22.1L25.8-22.1Q29.44-22.1 31.54-19.62 33.63-17.15 33.66-12.67L33.66-12.67ZM29.25-8.81L29.25-12.59Q29.25-15.54 28.41-16.98 27.57-18.42 25.8-18.42L25.8-18.42Q24.05-18.42 23.21-17.03 22.37-15.65 22.34-12.82L22.34-12.82 22.34-8.94Q22.34-6.08 23.2-4.72 24.05-3.37 25.83-3.37L25.83-3.37Q27.55-3.37 28.39-4.69 29.23-6.02 29.25-8.81L29.25-8.81ZM41.22-21.8L41.22-3.65 48.95-3.65 48.95 0 36.82 0 36.82-21.8 41.22-21.8ZM60.92-21.8L65.32-21.8 65.32-6.71Q65.29-3.31 63.45-1.5 61.61 0.3 58.16 0.3L58.16 0.3Q54.66 0.3 52.81-1.53 50.96-3.35 50.96-6.81L50.96-6.81 50.96-21.8 55.39-21.8 55.39-6.8Q55.39-4.94 55.99-4.15 56.59-3.35 58.16-3.35 59.73-3.35 60.32-4.14 60.9-4.93 60.92-6.72L60.92-6.72 60.92-21.8ZM82.78-21.8L82.78-18.13 77.39-18.13 77.39 0 72.97 0 72.97-18.13 67.67-18.13 67.67-21.8 82.78-21.8ZM89.91-21.8L89.91 0 85.5 0 85.5-21.8 89.91-21.8ZM108.95-12.67L108.95-8.94Q108.95-4.55 106.88-2.13 104.81 0.3 101.12 0.3L101.12 0.3Q97.45 0.3 95.36-2.1 93.26-4.51 93.23-8.83L93.23-8.83 93.23-12.56Q93.23-17.06 95.31-19.58 97.39-22.1 101.09-22.1L101.09-22.1Q104.73-22.1 106.83-19.62 108.92-17.15 108.95-12.67L108.95-12.67ZM104.54-8.81L104.54-12.59Q104.54-15.54 103.7-16.98 102.86-18.42 101.09-18.42L101.09-18.42Q99.34-18.42 98.5-17.03 97.66-15.65 97.63-12.82L97.63-12.82 97.63-8.94Q97.63-6.08 98.49-4.72 99.34-3.37 101.12-3.37L101.12-3.37Q102.85-3.37 103.68-4.69 104.52-6.02 104.54-8.81L104.54-8.81ZM127.36-21.8L127.36 0 122.96 0 116.52-14.3 116.52 0 112.11 0 112.11-21.8 116.52-21.8 122.97-7.49 122.97-21.8 127.36-21.8Z" transform="translate(-1.1100000143051147, 22.100000381469727)"></path></g></g></g></g> <!----></g></g>
</svg>
